<svg width="178" height="25" viewBox="0 0 178 25" fill="none" xmlns="http://www.w3.org/2000/svg">
	<path d="M8.05242 24.42C7.02575 24.42 6.06576 24.3267 5.17242 24.14C4.29242 23.9667 3.55242 23.7333 2.95242 23.44C2.35242 23.1467 1.85909 22.8667 1.47242 22.6C1.09909 22.3333 0.785755 22.0667 0.532422 21.8L1.03242 16.94C1.57909 17.6733 2.31242 18.3133 3.23242 18.86C4.15242 19.3933 5.14576 19.66 6.21242 19.66C7.27909 19.66 8.04576 19.5467 8.51242 19.32C8.99242 19.0933 9.23242 18.68 9.23242 18.08C9.23242 17.44 8.95909 16.8933 8.41242 16.44C7.87909 15.9867 6.95242 15.44 5.63242 14.8C5.15242 14.56 4.74576 14.3467 4.41242 14.16C4.07909 13.96 3.63242 13.64 3.07242 13.2C2.52576 12.7467 2.07909 12.28 1.73242 11.8C1.38576 11.3067 1.07909 10.68 0.812422 9.92C0.545755 9.14667 0.412422 8.32 0.412422 7.44C0.412422 2.68 3.09909 0.300001 8.47242 0.300001C9.32575 0.300001 10.1258 0.393334 10.8724 0.580001C11.6324 0.753333 12.2258 0.946666 12.6524 1.16C13.0791 1.37333 13.4658 1.62667 13.8124 1.92C14.1724 2.2 14.3991 2.4 14.4924 2.52C14.5858 2.62667 14.6524 2.71333 14.6924 2.78L13.6924 6.64C13.1724 6.02667 12.5191 5.57333 11.7324 5.28C10.9591 4.97333 10.2191 4.82 9.51242 4.82C7.80576 4.82 6.95242 5.35333 6.95242 6.42C6.95242 6.7 7.00575 6.95333 7.11242 7.18C7.21909 7.40667 7.39242 7.61333 7.63242 7.8C7.87242 7.98667 8.09242 8.14667 8.29242 8.28C8.50576 8.41333 8.79242 8.58 9.15242 8.78C9.52576 8.96667 9.80576 9.12 9.99242 9.24C11.9391 10.0667 13.3658 11.0467 14.2724 12.18C15.1924 13.3133 15.6524 14.6933 15.6524 16.32C15.6524 18.96 14.9991 20.9733 13.6924 22.36C12.3991 23.7333 10.5191 24.42 8.05242 24.42ZM29.1116 24C28.9516 23.8 28.605 23.02 28.0716 21.66C27.5516 20.2867 26.9383 18.74 26.2316 17.02C25.5383 15.2867 24.925 13.9733 24.3916 13.08V24H17.7716V0.56H24.3916V11.78L29.3716 0.56H36.0316L30.0716 11.56C30.4583 11.8267 30.9716 12.5533 31.6116 13.74C32.2516 14.9267 32.8516 16.1733 33.4116 17.48C33.9716 18.7867 34.5516 20.1 35.1516 21.42C35.7516 22.7267 36.1916 23.5867 36.4716 24H29.1116ZM37.5777 24V0.56H44.3977V24H37.5777ZM47.1271 24V0.56H53.7471V18.64H59.7071V24H47.1271ZM61.5412 24V0.56H68.1612V18.64H74.1212V24H61.5412ZM90.2352 21.88C88.5419 23.5733 86.5286 24.42 84.1952 24.42C82.5419 24.42 81.1086 24.1333 79.8952 23.56C78.6952 22.9867 77.7419 22.16 77.0352 21.08C76.3286 20 75.8086 18.7667 75.4752 17.38C75.1552 15.9933 74.9952 14.4133 74.9952 12.64C74.9952 11.32 75.0619 10.1333 75.1952 9.08C75.3419 8.02667 75.5752 7.02 75.8952 6.06C76.2152 5.1 76.6552 4.27333 77.2152 3.58C77.7752 2.87333 78.4619 2.26 79.2752 1.74C80.0886 1.22 81.0752 0.833333 82.2352 0.580001C83.3952 0.313334 84.7152 0.180001 86.1952 0.180001C86.8619 0.180001 87.4952 0.220001 88.0952 0.300001C88.7086 0.38 89.2286 0.48 89.6552 0.600001C90.0819 0.706667 90.4819 0.846667 90.8552 1.02C91.2419 1.18 91.5419 1.32667 91.7552 1.46C91.9819 1.58 92.1886 1.71333 92.3752 1.86C92.5619 2.00667 92.6752 2.10667 92.7152 2.16C92.7686 2.21333 92.8086 2.25333 92.8352 2.28L92.5352 6.88H88.8952L87.7552 4.22C87.4619 4.06 86.9886 3.98 86.3352 3.98C85.8019 3.98 85.3619 4.02667 85.0152 4.12C84.6686 4.21333 84.3219 4.41333 83.9752 4.72C83.6419 5.01333 83.3752 5.44667 83.1752 6.02C82.9886 6.58 82.8352 7.34667 82.7152 8.32C82.5952 9.28 82.5352 10.4533 82.5352 11.84C82.5352 14.7333 82.6886 16.88 82.9952 18.28C83.3152 19.68 83.9486 20.38 84.8952 20.38C85.3619 20.38 85.7552 20.34 86.0752 20.26C86.3952 20.1667 86.6952 20.0067 86.9752 19.78C87.2552 19.54 87.4619 19.1933 87.5952 18.74C87.7286 18.2733 87.7952 17.68 87.7952 16.96V14.92L85.1552 14.32V10.24H94.0552L94.0352 24H90.4752L90.2352 21.88ZM102.633 16.2V24H95.9929V0.56H98.6329C99.2729 0.56 100.226 0.533334 101.493 0.480001C102.76 0.413334 103.806 0.380001 104.633 0.380001C107.513 0.380001 109.66 1.01333 111.073 2.28C112.5 3.54667 113.213 5.48667 113.213 8.1C113.213 9.64667 112.873 11.02 112.193 12.22C111.526 13.42 110.64 14.3733 109.533 15.08C110.133 15.2267 110.646 15.5667 111.073 16.1C111.513 16.6333 111.853 17.2667 112.093 18C112.333 18.72 112.54 19.4533 112.713 20.2C112.9 20.9333 113.106 21.66 113.333 22.38C113.573 23.1 113.833 23.64 114.113 24H106.733C106.586 23.8133 106.473 23.2933 106.393 22.44C106.313 21.5733 106.2 20.54 106.053 19.34C105.92 18.1267 105.726 17.1133 105.473 16.3C105.446 16.3 105.413 16.3 105.373 16.3C105.12 16.3 104.846 16.3 104.553 16.3C104.273 16.2867 104.026 16.2733 103.813 16.26C103.6 16.2467 103.373 16.2333 103.133 16.22C102.906 16.2067 102.74 16.2 102.633 16.2ZM102.633 12.48H103.273C103.606 12.48 103.886 12.4667 104.113 12.44C104.34 12.4133 104.586 12.3667 104.853 12.3C105.133 12.22 105.36 12.1 105.533 11.94C105.72 11.78 105.893 11.5733 106.053 11.32C106.213 11.0667 106.333 10.74 106.413 10.34C106.493 9.94 106.533 9.47333 106.533 8.94V7.36C106.533 6.2 106.226 5.39333 105.613 4.94C105.013 4.47333 104.146 4.24 103.013 4.24H102.633V12.48ZM122.169 14.94C122.169 17.1533 122.335 18.6933 122.669 19.56C123.015 20.4267 123.615 20.86 124.469 20.86C125.095 20.86 125.569 20.7067 125.889 20.4C126.209 20.08 126.449 19.4333 126.609 18.46C126.782 17.4733 126.869 16 126.869 14.04V9.22C126.869 7.31333 126.682 5.89333 126.309 4.96C125.935 4.02667 125.322 3.56 124.469 3.56C123.615 3.56 123.015 4.02 122.669 4.94C122.335 5.84667 122.169 7.50667 122.169 9.92V14.94ZM124.049 24.42C122.942 24.42 121.942 24.32 121.049 24.12C120.169 23.92 119.409 23.64 118.769 23.28C118.129 22.92 117.569 22.46 117.089 21.9C116.622 21.34 116.242 20.74 115.949 20.1C115.669 19.46 115.442 18.7133 115.269 17.86C115.095 16.9933 114.975 16.1333 114.909 15.28C114.842 14.4133 114.809 13.44 114.809 12.36C114.809 10.76 114.889 9.36667 115.049 8.18C115.222 6.99333 115.535 5.88 115.989 4.84C116.442 3.78667 117.042 2.93333 117.789 2.28C118.549 1.62667 119.522 1.11333 120.709 0.74C121.909 0.366667 123.322 0.180001 124.949 0.180001C126.069 0.180001 127.075 0.286668 127.969 0.500001C128.862 0.700001 129.629 0.980001 130.269 1.34C130.909 1.7 131.462 2.16667 131.929 2.74C132.409 3.31333 132.789 3.92667 133.069 4.58C133.362 5.22 133.595 5.97333 133.769 6.84C133.942 7.70667 134.062 8.56667 134.129 9.42C134.195 10.2733 134.229 11.24 134.229 12.32C134.229 13.92 134.142 15.3133 133.969 16.5C133.795 17.6867 133.482 18.8 133.029 19.84C132.575 20.8667 131.969 21.7067 131.209 22.36C130.449 23 129.469 23.5067 128.269 23.88C127.082 24.24 125.675 24.42 124.049 24.42ZM140.267 24L133.647 0.56H141.027L142.767 8.64L144.567 17.12L146.267 8.64L148.067 0.56H153.327L147.527 24H140.267ZM167.538 24H153.358V0.56H167.238L166.838 5.28L159.978 5.08V9.6H165.378V14.28L159.978 13.88V19.2L167.538 19V24Z" fill="white" />
	<path d="M172.514 24.475L168.414 20.35V19.475L172.514 15.375H173.464L177.739 19.475V20.35L173.464 24.475H172.514Z" fill="#1FC6C6" />
</svg>
